# xmcd
#
# Track frame offsets:
#	150
#	14821
#	26972
#	41028
#	53349
#	66748
#	80179
#	94395
#	106060
#	117108
#	129472
#	140409
#	153309
#	164716
#	178381
#	187764
#	199192
#	214260
#	229555
#	243437
#	258938
#	272169
#	283866
#	295348
#	313823
#
# Disc length: 4337 seconds
#
# Revision: 0
# Processed by: cddbd v1.5.1PL0 Copyright (c) Steve Scherf et al.
# Submitted via: dBpowerAMP V4.0
#
DISCID=8610ef19
DTITLE=Glen Campbell - All The Best
DYEAR=1900
DGENRE=Country
TTITLE0=Rhinestone Cowboy
TTITLE1=Galveston
TTITLE2=Wichita Lineman
TTITLE3=By The Time I Get To Phoenix
TTITLE4=Gentle On My Mind
TTITLE5=Southern Nights
TTITLE6=Country Boy (You Got Your Feet In L.A.)
TTITLE7=Dreams Of The Everyday Housewife
TTITLE8=It's Only Make Believe
TTITLE9=I Wanna Live
TTITLE10=Try A Little Kindness
TTITLE11=Sunflower
TTITLE12=Dream Baby (How Long Must I Dream)
TTITLE13=Honey, Come Back
TTITLE14=Let It Be Me
TTITLE15=True Grit
TTITLE16=Houston (I'm Comin' To See You)
TTITLE17=Don't Pull Your Love/Then You Can Tell Me Goodbye
TTITLE18=Highwayman
TTITLE19=I'm Gonna Love You
TTITLE20=Where's The Playground Susie
TTITLE21=All I Have To Do Is Dream
TTITLE22=Hey Little One
TTITLE23=The Last Time I Saw Her
TTITLE24=Everything A Man Could Ever Need
EXTD=
EXTT0=
EXTT1=
EXTT2=
EXTT3=
EXTT4=
EXTT5=
EXTT6=
EXTT7=
EXTT8=
EXTT9=
EXTT10=
EXTT11=
EXTT12=
EXTT13=
EXTT14=
EXTT15=
EXTT16=
EXTT17=
EXTT18=
EXTT19=
EXTT20=
EXTT21=
EXTT22=
EXTT23=
EXTT24=
PLAYORDER=
